<mxfile host="Electron" modified="2023-10-01T08:30:49.107Z" agent="Mozilla/5.0 (Windows NT 10.0; Win64; x64) AppleWebKit/537.36 (KHTML, like Gecko) draw.io/21.8.2 Chrome/114.0.5735.289 Electron/25.8.1 Safari/537.36" etag="YQRMroc8bSau-vfJEUjm" version="21.8.2" type="device">
  <diagram name="Page-1" id="crQGkawsOBi8QEqjBXuk">
    <mxGraphModel dx="1500" dy="887" grid="1" gridSize="10" guides="1" tooltips="1" connect="1" arrows="1" fold="1" page="0" pageScale="1" pageWidth="850" pageHeight="1100" math="0" shadow="0">
      <root>
        <mxCell id="0" />
        <mxCell id="1" parent="0" />
        <mxCell id="Dgwj-SZr-PMqsErr2o7s-54" style="edgeStyle=orthogonalEdgeStyle;rounded=0;orthogonalLoop=1;jettySize=auto;html=1;exitX=0.25;exitY=1;exitDx=0;exitDy=0;noEdgeStyle=1;orthogonal=1;" parent="1" source="Dgwj-SZr-PMqsErr2o7s-7" target="Dgwj-SZr-PMqsErr2o7s-50" edge="1">
          <mxGeometry relative="1" as="geometry">
            <Array as="points">
              <mxPoint x="915" y="1122" />
              <mxPoint x="833.3333333333334" y="1198" />
            </Array>
          </mxGeometry>
        </mxCell>
        <mxCell id="Dgwj-SZr-PMqsErr2o7s-57" style="edgeStyle=orthogonalEdgeStyle;rounded=0;orthogonalLoop=1;jettySize=auto;html=1;exitX=0;exitY=0.5;exitDx=0;exitDy=0;noEdgeStyle=1;orthogonal=1;" parent="1" source="Dgwj-SZr-PMqsErr2o7s-7" target="Dgwj-SZr-PMqsErr2o7s-55" edge="1">
          <mxGeometry relative="1" as="geometry">
            <Array as="points">
              <mxPoint x="865" y="1122" />
              <mxPoint x="755" y="1160" />
              <mxPoint x="755" y="1350" />
              <mxPoint x="965" y="1350" />
              <mxPoint x="965" y="1510" />
              <mxPoint x="990.5" y="1548" />
            </Array>
          </mxGeometry>
        </mxCell>
        <mxCell id="Dgwj-SZr-PMqsErr2o7s-7" value="Filesystem Metadata" style="html=1;dashed=0;whiteSpace=wrap;shape=partialRectangle;right=0;fillColor=#d5e8d4;strokeColor=#82b366;" parent="1" vertex="1">
          <mxGeometry x="835" y="1060" width="110" height="40" as="geometry" />
        </mxCell>
        <mxCell id="Dgwj-SZr-PMqsErr2o7s-16" style="edgeStyle=orthogonalEdgeStyle;rounded=0;orthogonalLoop=1;jettySize=auto;html=1;exitX=1;exitY=0.5;exitDx=0;exitDy=0;noEdgeStyle=1;orthogonal=1;" parent="1" source="Dgwj-SZr-PMqsErr2o7s-8" target="Dgwj-SZr-PMqsErr2o7s-13" edge="1">
          <mxGeometry relative="1" as="geometry">
            <Array as="points">
              <mxPoint x="872.1428571428572" y="1476" />
              <mxPoint x="644.5" y="1548" />
            </Array>
          </mxGeometry>
        </mxCell>
        <mxCell id="Dgwj-SZr-PMqsErr2o7s-20" style="edgeStyle=orthogonalEdgeStyle;rounded=0;orthogonalLoop=1;jettySize=auto;html=1;exitX=0;exitY=0.5;exitDx=0;exitDy=0;noEdgeStyle=1;orthogonal=1;" parent="1" source="Dgwj-SZr-PMqsErr2o7s-8" target="Dgwj-SZr-PMqsErr2o7s-19" edge="1">
          <mxGeometry relative="1" as="geometry">
            <Array as="points">
              <mxPoint x="918.75" y="1388" />
              <mxPoint x="1480" y="1350" />
              <mxPoint x="1480" y="1160" />
              <mxPoint x="1480" y="1160" />
              <mxPoint x="1480" y="1000" />
              <mxPoint x="1480" y="1000" />
              <mxPoint x="1480" y="790" />
              <mxPoint x="1480" y="790" />
              <mxPoint x="1480" y="610" />
              <mxPoint x="1480" y="610" />
              <mxPoint x="1480" y="450" />
              <mxPoint x="1480" y="450" />
              <mxPoint x="1480" y="280" />
              <mxPoint x="903.6000967806458" y="242" />
            </Array>
          </mxGeometry>
        </mxCell>
        <mxCell id="Dgwj-SZr-PMqsErr2o7s-24" style="edgeStyle=orthogonalEdgeStyle;rounded=0;orthogonalLoop=1;jettySize=auto;html=1;exitX=0;exitY=0.5;exitDx=0;exitDy=0;noEdgeStyle=1;orthogonal=1;" parent="1" source="Dgwj-SZr-PMqsErr2o7s-8" target="Dgwj-SZr-PMqsErr2o7s-23" edge="1">
          <mxGeometry relative="1" as="geometry">
            <Array as="points">
              <mxPoint x="846.4285714285714" y="1472" />
              <mxPoint x="379.5" y="1548" />
            </Array>
          </mxGeometry>
        </mxCell>
        <mxCell id="Dgwj-SZr-PMqsErr2o7s-48" style="edgeStyle=orthogonalEdgeStyle;rounded=0;orthogonalLoop=1;jettySize=auto;html=1;exitX=0.5;exitY=0;exitDx=0;exitDy=0;noEdgeStyle=1;orthogonal=1;" parent="1" source="Dgwj-SZr-PMqsErr2o7s-8" target="Dgwj-SZr-PMqsErr2o7s-46" edge="1">
          <mxGeometry relative="1" as="geometry">
            <Array as="points">
              <mxPoint x="859.2857142857143" y="1474" />
              <mxPoint x="506.1666666666667" y="1548" />
            </Array>
          </mxGeometry>
        </mxCell>
        <mxCell id="Dgwj-SZr-PMqsErr2o7s-56" style="edgeStyle=orthogonalEdgeStyle;rounded=0;orthogonalLoop=1;jettySize=auto;html=1;exitX=0.25;exitY=0;exitDx=0;exitDy=0;noEdgeStyle=1;orthogonal=1;" parent="1" source="Dgwj-SZr-PMqsErr2o7s-8" target="Dgwj-SZr-PMqsErr2o7s-55" edge="1">
          <mxGeometry relative="1" as="geometry">
            <Array as="points">
              <mxPoint x="897.857142857143" y="1476" />
              <mxPoint x="950.5" y="1548" />
            </Array>
          </mxGeometry>
        </mxCell>
        <mxCell id="m_El8sEmNPDGXUU-qMF1-16" style="edgeStyle=orthogonalEdgeStyle;rounded=0;orthogonalLoop=1;jettySize=auto;html=1;exitX=0;exitY=0.25;exitDx=0;exitDy=0;noEdgeStyle=1;orthogonal=1;" edge="1" parent="1" source="Dgwj-SZr-PMqsErr2o7s-8" target="m_El8sEmNPDGXUU-qMF1-14">
          <mxGeometry relative="1" as="geometry">
            <Array as="points">
              <mxPoint x="885.0000000000001" y="1478" />
              <mxPoint x="815" y="1548" />
            </Array>
          </mxGeometry>
        </mxCell>
        <mxCell id="m_El8sEmNPDGXUU-qMF1-21" style="edgeStyle=orthogonalEdgeStyle;rounded=0;orthogonalLoop=1;jettySize=auto;html=1;exitX=1;exitY=0.5;exitDx=0;exitDy=0;noEdgeStyle=1;orthogonal=1;" edge="1" parent="1" source="Dgwj-SZr-PMqsErr2o7s-8" target="m_El8sEmNPDGXUU-qMF1-19">
          <mxGeometry relative="1" as="geometry">
            <Array as="points">
              <mxPoint x="910.7142857142859" y="1474" />
              <mxPoint x="1063.8333333333333" y="1548" />
            </Array>
          </mxGeometry>
        </mxCell>
        <mxCell id="Dgwj-SZr-PMqsErr2o7s-8" value="File Contents" style="html=1;dashed=0;whiteSpace=wrap;shape=partialRectangle;right=0;fillColor=#d5e8d4;strokeColor=#82b366;" parent="1" vertex="1">
          <mxGeometry x="835" y="1410" width="100" height="40" as="geometry" />
        </mxCell>
        <mxCell id="Dgwj-SZr-PMqsErr2o7s-21" style="edgeStyle=orthogonalEdgeStyle;rounded=0;orthogonalLoop=1;jettySize=auto;html=1;exitX=0;exitY=0.5;exitDx=0;exitDy=0;noEdgeStyle=1;orthogonal=1;" parent="1" source="Dgwj-SZr-PMqsErr2o7s-9" target="Dgwj-SZr-PMqsErr2o7s-19" edge="1">
          <mxGeometry relative="1" as="geometry">
            <Array as="points">
              <mxPoint x="883.6000967806458" y="52" />
              <mxPoint x="883.6000967806458" y="128" />
            </Array>
          </mxGeometry>
        </mxCell>
        <mxCell id="Dgwj-SZr-PMqsErr2o7s-9" value="Actively opened files" style="html=1;dashed=0;whiteSpace=wrap;shape=partialRectangle;right=0;fillColor=#d5e8d4;strokeColor=#82b366;" parent="1" vertex="1">
          <mxGeometry x="833.6000967806458" width="100" height="40" as="geometry" />
        </mxCell>
        <mxCell id="Dgwj-SZr-PMqsErr2o7s-34" style="edgeStyle=orthogonalEdgeStyle;rounded=0;orthogonalLoop=1;jettySize=auto;html=1;exitX=0.5;exitY=1;exitDx=0;exitDy=0;noEdgeStyle=1;orthogonal=1;" parent="1" source="Dgwj-SZr-PMqsErr2o7s-12" target="Dgwj-SZr-PMqsErr2o7s-33" edge="1">
          <mxGeometry relative="1" as="geometry">
            <Array as="points">
              <mxPoint x="679.375" y="2042" />
              <mxPoint x="768.75" y="2118" />
            </Array>
          </mxGeometry>
        </mxCell>
        <mxCell id="Dgwj-SZr-PMqsErr2o7s-12" value="Logs" style="html=1;dashed=0;whiteSpace=wrap;shape=partialRectangle;right=0;fillColor=#d5e8d4;strokeColor=#82b366;" parent="1" vertex="1">
          <mxGeometry x="629.375" y="1970" width="100" height="30" as="geometry" />
        </mxCell>
        <mxCell id="Dgwj-SZr-PMqsErr2o7s-15" style="edgeStyle=orthogonalEdgeStyle;rounded=0;orthogonalLoop=1;jettySize=auto;html=1;exitX=0.5;exitY=1;exitDx=0;exitDy=0;noEdgeStyle=1;orthogonal=1;" parent="1" source="Dgwj-SZr-PMqsErr2o7s-13" target="Dgwj-SZr-PMqsErr2o7s-14" edge="1">
          <mxGeometry relative="1" as="geometry">
            <Array as="points">
              <mxPoint x="644.5" y="1662" />
              <mxPoint x="715" y="1738" />
            </Array>
          </mxGeometry>
        </mxCell>
        <mxCell id="Dgwj-SZr-PMqsErr2o7s-13" value="Artefact Dependency DAG" style="html=1;dashed=0;whiteSpace=wrap;shape=partialRectangle;right=0;fillColor=#d5e8d4;strokeColor=#82b366;" parent="1" vertex="1">
          <mxGeometry x="584.5" y="1580" width="120" height="50" as="geometry" />
        </mxCell>
        <mxCell id="Dgwj-SZr-PMqsErr2o7s-14" value="On every (attemped) artefact insertion, we will check this for a possible cycle." style="text;html=1;strokeColor=default;fillColor=none;align=left;verticalAlign=top;whiteSpace=wrap;rounded=0;" parent="1" vertex="1">
          <mxGeometry x="600" y="1765" width="230" height="60" as="geometry" />
        </mxCell>
        <mxCell id="Dgwj-SZr-PMqsErr2o7s-65" style="edgeStyle=orthogonalEdgeStyle;rounded=0;orthogonalLoop=1;jettySize=auto;html=1;exitX=1;exitY=0.5;exitDx=0;exitDy=0;noEdgeStyle=1;orthogonal=1;" parent="1" source="Dgwj-SZr-PMqsErr2o7s-17" target="Dgwj-SZr-PMqsErr2o7s-63" edge="1">
          <mxGeometry relative="1" as="geometry">
            <Array as="points">
              <mxPoint x="1210" y="752" />
              <mxPoint x="1036.6666666666667" y="828" />
            </Array>
          </mxGeometry>
        </mxCell>
        <mxCell id="Dgwj-SZr-PMqsErr2o7s-17" value="Docstring Metadata" style="html=1;dashed=0;whiteSpace=wrap;shape=partialRectangle;right=0;fillColor=#d5e8d4;strokeColor=#82b366;" parent="1" vertex="1">
          <mxGeometry x="1160" y="677.5" width="100" height="45" as="geometry" />
        </mxCell>
        <mxCell id="m_El8sEmNPDGXUU-qMF1-53" style="edgeStyle=orthogonalEdgeStyle;rounded=0;orthogonalLoop=1;jettySize=auto;html=1;exitX=0.5;exitY=1;exitDx=0;exitDy=0;noEdgeStyle=1;orthogonal=1;" edge="1" parent="1" source="Dgwj-SZr-PMqsErr2o7s-19" target="m_El8sEmNPDGXUU-qMF1-52">
          <mxGeometry relative="1" as="geometry">
            <Array as="points">
              <mxPoint x="863.6000967806458" y="242" />
              <mxPoint x="757.8666989268819" y="318" />
            </Array>
          </mxGeometry>
        </mxCell>
        <mxCell id="Dgwj-SZr-PMqsErr2o7s-19" value="Validator" style="shape=ellipse;html=1;dashed=0;whiteSpace=wrap;aspect=fixed;perimeter=ellipsePerimeter;fillColor=#FFD966;strokeColor=#D6A318;" parent="1" vertex="1">
          <mxGeometry x="838.6000967806458" y="140" width="90" height="90" as="geometry" />
        </mxCell>
        <mxCell id="Dgwj-SZr-PMqsErr2o7s-28" style="edgeStyle=orthogonalEdgeStyle;rounded=0;orthogonalLoop=1;jettySize=auto;html=1;exitX=0.5;exitY=1;exitDx=0;exitDy=0;noEdgeStyle=1;orthogonal=1;" parent="1" source="Dgwj-SZr-PMqsErr2o7s-23" target="Dgwj-SZr-PMqsErr2o7s-27" edge="1">
          <mxGeometry relative="1" as="geometry">
            <Array as="points">
              <mxPoint x="339.5" y="1662" />
              <mxPoint x="420" y="1700" />
              <mxPoint x="420" y="1890" />
              <mxPoint x="420" y="1890" />
              <mxPoint x="420" y="2080" />
              <mxPoint x="420" y="2080" />
              <mxPoint x="420" y="2270" />
              <mxPoint x="686.25" y="2308" />
            </Array>
          </mxGeometry>
        </mxCell>
        <mxCell id="Dgwj-SZr-PMqsErr2o7s-32" style="edgeStyle=orthogonalEdgeStyle;rounded=0;orthogonalLoop=1;jettySize=auto;html=1;exitX=1;exitY=0.5;exitDx=0;exitDy=0;noEdgeStyle=1;orthogonal=1;" parent="1" source="Dgwj-SZr-PMqsErr2o7s-23" target="Dgwj-SZr-PMqsErr2o7s-30" edge="1">
          <mxGeometry relative="1" as="geometry">
            <Array as="points">
              <mxPoint x="379.5" y="1662" />
              <mxPoint x="495" y="1738" />
            </Array>
          </mxGeometry>
        </mxCell>
        <mxCell id="Dgwj-SZr-PMqsErr2o7s-23" value="Code Exporter" style="shape=ellipse;html=1;dashed=0;whiteSpace=wrap;aspect=fixed;perimeter=ellipsePerimeter;fillColor=#FFD966;strokeColor=#D6A318;" parent="1" vertex="1">
          <mxGeometry x="314.5" y="1560" width="90" height="90" as="geometry" />
        </mxCell>
        <mxCell id="Dgwj-SZr-PMqsErr2o7s-26" style="edgeStyle=orthogonalEdgeStyle;rounded=0;orthogonalLoop=1;jettySize=auto;html=1;exitX=1;exitY=0.5;exitDx=0;exitDy=0;noEdgeStyle=1;orthogonal=1;" parent="1" source="Dgwj-SZr-PMqsErr2o7s-25" target="Dgwj-SZr-PMqsErr2o7s-23" edge="1">
          <mxGeometry relative="1" as="geometry">
            <Array as="points">
              <mxPoint x="180" y="752" />
              <mxPoint x="75" y="790" />
              <mxPoint x="75" y="1000" />
              <mxPoint x="75" y="1000" />
              <mxPoint x="75" y="1160" />
              <mxPoint x="75" y="1160" />
              <mxPoint x="75" y="1350" />
              <mxPoint x="75" y="1350" />
              <mxPoint x="75" y="1510" />
              <mxPoint x="339.5" y="1548" />
            </Array>
          </mxGeometry>
        </mxCell>
        <mxCell id="Dgwj-SZr-PMqsErr2o7s-25" value="Export Code Command" style="shape=manualInput;whiteSpace=wrap;html=1;dashed=0;size=15;fillColor=#cca3e0;strokeColor=#9673a6;" parent="1" vertex="1">
          <mxGeometry x="130" y="660" width="100" height="80" as="geometry" />
        </mxCell>
        <mxCell id="Dgwj-SZr-PMqsErr2o7s-27" value="User&#39;s Computer" style="html=1;whiteSpace=wrap;fillColor=#fff2cc;strokeColor=#d6b656;" parent="1" vertex="1">
          <mxGeometry x="656.25" y="2320" width="110" height="50" as="geometry" />
        </mxCell>
        <mxCell id="Dgwj-SZr-PMqsErr2o7s-31" style="edgeStyle=orthogonalEdgeStyle;rounded=0;orthogonalLoop=1;jettySize=auto;html=1;exitX=1;exitY=0.5;exitDx=0;exitDy=0;noEdgeStyle=1;orthogonal=1;" parent="1" source="Dgwj-SZr-PMqsErr2o7s-30" target="Dgwj-SZr-PMqsErr2o7s-12" edge="1">
          <mxGeometry relative="1" as="geometry">
            <Array as="points">
              <mxPoint x="495" y="1852" />
              <mxPoint x="679.375" y="1928" />
            </Array>
          </mxGeometry>
        </mxCell>
        <mxCell id="Dgwj-SZr-PMqsErr2o7s-30" value="Logger" style="shape=ellipse;html=1;dashed=0;whiteSpace=wrap;aspect=fixed;perimeter=ellipsePerimeter;fillColor=#FFD966;strokeColor=#D6A318;" parent="1" vertex="1">
          <mxGeometry x="450" y="1750" width="90" height="90" as="geometry" />
        </mxCell>
        <mxCell id="Dgwj-SZr-PMqsErr2o7s-35" style="edgeStyle=orthogonalEdgeStyle;rounded=0;orthogonalLoop=1;jettySize=auto;html=1;exitX=0.5;exitY=0;exitDx=0;exitDy=0;entryX=0.5;entryY=1;entryDx=0;entryDy=0;noEdgeStyle=1;orthogonal=1;" parent="1" source="Dgwj-SZr-PMqsErr2o7s-33" target="Dgwj-SZr-PMqsErr2o7s-27" edge="1">
          <mxGeometry relative="1" as="geometry">
            <Array as="points">
              <mxPoint x="748.75" y="2232" />
              <mxPoint x="736.25" y="2308" />
            </Array>
          </mxGeometry>
        </mxCell>
        <mxCell id="Dgwj-SZr-PMqsErr2o7s-33" value="Log Exporter" style="shape=ellipse;html=1;dashed=0;whiteSpace=wrap;aspect=fixed;perimeter=ellipsePerimeter;fillColor=#FFD966;strokeColor=#D6A318;" parent="1" vertex="1">
          <mxGeometry x="703.75" y="2130" width="90" height="90" as="geometry" />
        </mxCell>
        <mxCell id="Dgwj-SZr-PMqsErr2o7s-37" style="edgeStyle=orthogonalEdgeStyle;rounded=0;orthogonalLoop=1;jettySize=auto;html=1;exitX=1;exitY=0.5;exitDx=0;exitDy=0;noEdgeStyle=1;orthogonal=1;" parent="1" source="Dgwj-SZr-PMqsErr2o7s-36" target="Dgwj-SZr-PMqsErr2o7s-33" edge="1">
          <mxGeometry relative="1" as="geometry">
            <Array as="points">
              <mxPoint x="50" y="752" />
              <mxPoint x="45" y="790" />
              <mxPoint x="45" y="1000" />
              <mxPoint x="45" y="1000" />
              <mxPoint x="45" y="1160" />
              <mxPoint x="45" y="1160" />
              <mxPoint x="45" y="1350" />
              <mxPoint x="45" y="1350" />
              <mxPoint x="45" y="1510" />
              <mxPoint x="45" y="1510" />
              <mxPoint x="45" y="1700" />
              <mxPoint x="45" y="1700" />
              <mxPoint x="45" y="1890" />
              <mxPoint x="45" y="1890" />
              <mxPoint x="45" y="2080" />
              <mxPoint x="728.75" y="2118" />
            </Array>
          </mxGeometry>
        </mxCell>
        <mxCell id="Dgwj-SZr-PMqsErr2o7s-36" value="Export Logs Event" style="shape=manualInput;whiteSpace=wrap;html=1;dashed=0;size=15;fillColor=#cca3e0;strokeColor=#9673a6;" parent="1" vertex="1">
          <mxGeometry y="665" width="100" height="70" as="geometry" />
        </mxCell>
        <mxCell id="Dgwj-SZr-PMqsErr2o7s-40" style="edgeStyle=orthogonalEdgeStyle;rounded=0;orthogonalLoop=1;jettySize=auto;html=1;exitX=0;exitY=1;exitDx=0;exitDy=0;noEdgeStyle=1;orthogonal=1;" parent="1" source="Dgwj-SZr-PMqsErr2o7s-39" target="Dgwj-SZr-PMqsErr2o7s-25" edge="1">
          <mxGeometry relative="1" as="geometry">
            <Array as="points">
              <mxPoint x="555" y="574" />
              <mxPoint x="180" y="648" />
            </Array>
          </mxGeometry>
        </mxCell>
        <mxCell id="Dgwj-SZr-PMqsErr2o7s-41" style="edgeStyle=orthogonalEdgeStyle;rounded=0;orthogonalLoop=1;jettySize=auto;html=1;exitX=0.5;exitY=1;exitDx=0;exitDy=0;noEdgeStyle=1;orthogonal=1;" parent="1" source="Dgwj-SZr-PMqsErr2o7s-39" target="Dgwj-SZr-PMqsErr2o7s-36" edge="1">
          <mxGeometry relative="1" as="geometry">
            <Array as="points">
              <mxPoint x="548.3333333333334" y="572" />
              <mxPoint x="50" y="648" />
            </Array>
          </mxGeometry>
        </mxCell>
        <mxCell id="Dgwj-SZr-PMqsErr2o7s-43" style="edgeStyle=orthogonalEdgeStyle;rounded=0;orthogonalLoop=1;jettySize=auto;html=1;exitX=1;exitY=0.25;exitDx=0;exitDy=0;noEdgeStyle=1;orthogonal=1;" parent="1" source="Dgwj-SZr-PMqsErr2o7s-39" target="Dgwj-SZr-PMqsErr2o7s-42" edge="1">
          <mxGeometry relative="1" as="geometry">
            <Array as="points">
              <mxPoint x="601.6666666666664" y="584" />
              <mxPoint x="890" y="648" />
            </Array>
          </mxGeometry>
        </mxCell>
        <mxCell id="Dgwj-SZr-PMqsErr2o7s-45" style="edgeStyle=orthogonalEdgeStyle;rounded=0;orthogonalLoop=1;jettySize=auto;html=1;exitX=0;exitY=0;exitDx=0;exitDy=0;noEdgeStyle=1;orthogonal=1;" parent="1" source="Dgwj-SZr-PMqsErr2o7s-39" target="Dgwj-SZr-PMqsErr2o7s-44" edge="1">
          <mxGeometry relative="1" as="geometry">
            <Array as="points">
              <mxPoint x="561.6666666666666" y="576" />
              <mxPoint x="310" y="648" />
            </Array>
          </mxGeometry>
        </mxCell>
        <mxCell id="Dgwj-SZr-PMqsErr2o7s-62" style="edgeStyle=orthogonalEdgeStyle;rounded=0;orthogonalLoop=1;jettySize=auto;html=1;exitX=1;exitY=0.5;exitDx=0;exitDy=0;noEdgeStyle=1;orthogonal=1;" parent="1" source="Dgwj-SZr-PMqsErr2o7s-39" target="Dgwj-SZr-PMqsErr2o7s-61" edge="1">
          <mxGeometry relative="1" as="geometry">
            <Array as="points">
              <mxPoint x="614.9999999999997" y="580" />
              <mxPoint x="1050" y="648" />
            </Array>
          </mxGeometry>
        </mxCell>
        <mxCell id="m_El8sEmNPDGXUU-qMF1-2" style="edgeStyle=orthogonalEdgeStyle;rounded=0;orthogonalLoop=1;jettySize=auto;html=1;exitX=1;exitY=0.5;exitDx=0;exitDy=0;noEdgeStyle=1;orthogonal=1;" edge="1" parent="1" source="Dgwj-SZr-PMqsErr2o7s-39" target="m_El8sEmNPDGXUU-qMF1-1">
          <mxGeometry relative="1" as="geometry">
            <Array as="points">
              <mxPoint x="574.9999999999999" y="580" />
              <mxPoint x="470" y="648" />
            </Array>
          </mxGeometry>
        </mxCell>
        <mxCell id="m_El8sEmNPDGXUU-qMF1-18" style="edgeStyle=orthogonalEdgeStyle;rounded=0;orthogonalLoop=1;jettySize=auto;html=1;exitX=1;exitY=0.75;exitDx=0;exitDy=0;noEdgeStyle=1;orthogonal=1;" edge="1" parent="1" source="Dgwj-SZr-PMqsErr2o7s-39" target="m_El8sEmNPDGXUU-qMF1-17">
          <mxGeometry relative="1" as="geometry">
            <Array as="points">
              <mxPoint x="628.3333333333329" y="576" />
              <mxPoint x="1340" y="648" />
            </Array>
          </mxGeometry>
        </mxCell>
        <mxCell id="m_El8sEmNPDGXUU-qMF1-31" style="edgeStyle=orthogonalEdgeStyle;rounded=0;orthogonalLoop=1;jettySize=auto;html=1;exitX=0;exitY=0.25;exitDx=0;exitDy=0;noEdgeStyle=1;orthogonal=1;" edge="1" parent="1" source="Dgwj-SZr-PMqsErr2o7s-39" target="m_El8sEmNPDGXUU-qMF1-30">
          <mxGeometry relative="1" as="geometry">
            <Array as="points">
              <mxPoint x="581.6666666666665" y="582" />
              <mxPoint x="600" y="648" />
            </Array>
          </mxGeometry>
        </mxCell>
        <mxCell id="m_El8sEmNPDGXUU-qMF1-42" style="edgeStyle=orthogonalEdgeStyle;rounded=0;orthogonalLoop=1;jettySize=auto;html=1;exitX=0;exitY=0.5;exitDx=0;exitDy=0;noEdgeStyle=1;orthogonal=1;" edge="1" parent="1" source="Dgwj-SZr-PMqsErr2o7s-39" target="m_El8sEmNPDGXUU-qMF1-41">
          <mxGeometry relative="1" as="geometry">
            <Array as="points">
              <mxPoint x="594.9999999999998" y="586" />
              <mxPoint x="760" y="648" />
            </Array>
          </mxGeometry>
        </mxCell>
        <mxCell id="Dgwj-SZr-PMqsErr2o7s-39" value="Frontend" style="html=1;whiteSpace=wrap;fillColor=#fff2cc;strokeColor=#d6b656;" parent="1" vertex="1">
          <mxGeometry x="540" y="505" width="110" height="50" as="geometry" />
        </mxCell>
        <mxCell id="Dgwj-SZr-PMqsErr2o7s-51" style="edgeStyle=orthogonalEdgeStyle;rounded=0;orthogonalLoop=1;jettySize=auto;html=1;exitX=1;exitY=0.5;exitDx=0;exitDy=0;noEdgeStyle=1;orthogonal=1;" parent="1" source="Dgwj-SZr-PMqsErr2o7s-42" target="Dgwj-SZr-PMqsErr2o7s-50" edge="1">
          <mxGeometry relative="1" as="geometry">
            <Array as="points">
              <mxPoint x="890" y="752" />
              <mxPoint x="905" y="790" />
              <mxPoint x="905" y="1000" />
              <mxPoint x="1005" y="1000" />
              <mxPoint x="1005" y="1160" />
              <mxPoint x="860" y="1196" />
            </Array>
          </mxGeometry>
        </mxCell>
        <mxCell id="Dgwj-SZr-PMqsErr2o7s-42" value="Get FS Metadata (on refresh btn)" style="shape=manualInput;whiteSpace=wrap;html=1;dashed=0;size=15;fillColor=#cca3e0;strokeColor=#9673a6;" parent="1" vertex="1">
          <mxGeometry x="840" y="665" width="100" height="70" as="geometry" />
        </mxCell>
        <mxCell id="Dgwj-SZr-PMqsErr2o7s-47" style="edgeStyle=orthogonalEdgeStyle;rounded=0;orthogonalLoop=1;jettySize=auto;html=1;exitX=0;exitY=0.5;exitDx=0;exitDy=0;noEdgeStyle=1;orthogonal=1;" parent="1" source="Dgwj-SZr-PMqsErr2o7s-44" target="Dgwj-SZr-PMqsErr2o7s-46" edge="1">
          <mxGeometry relative="1" as="geometry">
            <Array as="points">
              <mxPoint x="310" y="752" />
              <mxPoint x="105" y="790" />
              <mxPoint x="105" y="1000" />
              <mxPoint x="105" y="1000" />
              <mxPoint x="105" y="1160" />
              <mxPoint x="105" y="1160" />
              <mxPoint x="105" y="1350" />
              <mxPoint x="105" y="1350" />
              <mxPoint x="105" y="1510" />
              <mxPoint x="452.8333333333333" y="1548" />
            </Array>
          </mxGeometry>
        </mxCell>
        <mxCell id="Dgwj-SZr-PMqsErr2o7s-44" value="Get File Contents" style="shape=manualInput;whiteSpace=wrap;html=1;dashed=0;size=15;fillColor=#cca3e0;strokeColor=#9673a6;" parent="1" vertex="1">
          <mxGeometry x="260" y="675" width="100" height="50" as="geometry" />
        </mxCell>
        <mxCell id="Dgwj-SZr-PMqsErr2o7s-49" style="edgeStyle=orthogonalEdgeStyle;rounded=0;orthogonalLoop=1;jettySize=auto;html=1;exitX=0;exitY=0.5;exitDx=0;exitDy=0;noEdgeStyle=1;orthogonal=1;" parent="1" source="Dgwj-SZr-PMqsErr2o7s-46" target="Dgwj-SZr-PMqsErr2o7s-39" edge="1">
          <mxGeometry relative="1" as="geometry">
            <Array as="points">
              <mxPoint x="479.5" y="1546" />
              <mxPoint x="135" y="1510" />
              <mxPoint x="135" y="1350" />
              <mxPoint x="135" y="1350" />
              <mxPoint x="135" y="1160" />
              <mxPoint x="135" y="1160" />
              <mxPoint x="135" y="1000" />
              <mxPoint x="135" y="1000" />
              <mxPoint x="135" y="790" />
              <mxPoint x="390" y="790" />
              <mxPoint x="390" y="610" />
              <mxPoint x="568.3333333333333" y="578" />
            </Array>
          </mxGeometry>
        </mxCell>
        <mxCell id="Dgwj-SZr-PMqsErr2o7s-46" value="Fetch file contents" style="shape=ellipse;html=1;dashed=0;whiteSpace=wrap;aspect=fixed;perimeter=ellipsePerimeter;fillColor=#FFD966;strokeColor=#D6A318;" parent="1" vertex="1">
          <mxGeometry x="434.5" y="1560" width="90" height="90" as="geometry" />
        </mxCell>
        <mxCell id="Dgwj-SZr-PMqsErr2o7s-52" style="edgeStyle=orthogonalEdgeStyle;rounded=0;orthogonalLoop=1;jettySize=auto;html=1;exitX=0;exitY=0.5;exitDx=0;exitDy=0;noEdgeStyle=1;orthogonal=1;" parent="1" source="Dgwj-SZr-PMqsErr2o7s-50" target="Dgwj-SZr-PMqsErr2o7s-39" edge="1">
          <mxGeometry relative="1" as="geometry">
            <Array as="points">
              <mxPoint x="886.6666666666666" y="1198" />
              <mxPoint x="1035" y="1160" />
              <mxPoint x="1035" y="1000" />
              <mxPoint x="935" y="1000" />
              <mxPoint x="935" y="790" />
              <mxPoint x="970" y="790" />
              <mxPoint x="970" y="610" />
              <mxPoint x="608.333333333333" y="582" />
            </Array>
          </mxGeometry>
        </mxCell>
        <mxCell id="Dgwj-SZr-PMqsErr2o7s-50" value="fetch FS metadata" style="shape=ellipse;html=1;dashed=0;whiteSpace=wrap;aspect=fixed;perimeter=ellipsePerimeter;fillColor=#FFD966;strokeColor=#D6A318;" parent="1" vertex="1">
          <mxGeometry x="815" y="1210" width="90" height="90" as="geometry" />
        </mxCell>
        <mxCell id="Dgwj-SZr-PMqsErr2o7s-59" style="edgeStyle=orthogonalEdgeStyle;rounded=0;orthogonalLoop=1;jettySize=auto;html=1;exitX=0.5;exitY=1;exitDx=0;exitDy=0;noEdgeStyle=1;orthogonal=1;" parent="1" source="Dgwj-SZr-PMqsErr2o7s-55" target="Dgwj-SZr-PMqsErr2o7s-58" edge="1">
          <mxGeometry relative="1" as="geometry">
            <Array as="points">
              <mxPoint x="970.5" y="1662" />
              <mxPoint x="1017.5" y="1738" />
            </Array>
          </mxGeometry>
        </mxCell>
        <mxCell id="Dgwj-SZr-PMqsErr2o7s-55" value="Detect FS and File changes" style="shape=ellipse;html=1;dashed=0;whiteSpace=wrap;aspect=fixed;perimeter=ellipsePerimeter;fillColor=#FFD966;strokeColor=#D6A318;" parent="1" vertex="1">
          <mxGeometry x="925.5" y="1560" width="90" height="90" as="geometry" />
        </mxCell>
        <mxCell id="Dgwj-SZr-PMqsErr2o7s-60" style="edgeStyle=orthogonalEdgeStyle;rounded=0;orthogonalLoop=1;jettySize=auto;html=1;exitX=0.25;exitY=1;exitDx=0;exitDy=0;noEdgeStyle=1;orthogonal=1;" parent="1" source="Dgwj-SZr-PMqsErr2o7s-58" target="Dgwj-SZr-PMqsErr2o7s-39" edge="1">
          <mxGeometry relative="1" as="geometry">
            <Array as="points">
              <mxPoint x="1062.5" y="1738" />
              <mxPoint x="1450" y="1700" />
              <mxPoint x="1450" y="1510" />
              <mxPoint x="1450" y="1510" />
              <mxPoint x="1450" y="1350" />
              <mxPoint x="1450" y="1350" />
              <mxPoint x="1450" y="1160" />
              <mxPoint x="1450" y="1160" />
              <mxPoint x="1450" y="1000" />
              <mxPoint x="1450" y="1000" />
              <mxPoint x="1450" y="790" />
              <mxPoint x="1450" y="790" />
              <mxPoint x="1450" y="610" />
              <mxPoint x="641.6666666666662" y="572" />
            </Array>
          </mxGeometry>
        </mxCell>
        <mxCell id="m_El8sEmNPDGXUU-qMF1-26" style="edgeStyle=orthogonalEdgeStyle;rounded=0;orthogonalLoop=1;jettySize=auto;html=1;exitX=1;exitY=0.5;exitDx=0;exitDy=0;noEdgeStyle=1;orthogonal=1;" edge="1" parent="1" source="Dgwj-SZr-PMqsErr2o7s-58" target="m_El8sEmNPDGXUU-qMF1-24">
          <mxGeometry relative="1" as="geometry">
            <Array as="points">
              <mxPoint x="1040" y="1852" />
              <mxPoint x="825" y="1928" />
            </Array>
          </mxGeometry>
        </mxCell>
        <mxCell id="Dgwj-SZr-PMqsErr2o7s-58" value="File/FS changed Event" style="shape=manualInput;whiteSpace=wrap;html=1;dashed=0;size=15;fillColor=#cca3e0;strokeColor=#9673a6;" parent="1" vertex="1">
          <mxGeometry x="990" y="1760" width="100" height="70" as="geometry" />
        </mxCell>
        <mxCell id="Dgwj-SZr-PMqsErr2o7s-64" style="edgeStyle=orthogonalEdgeStyle;rounded=0;orthogonalLoop=1;jettySize=auto;html=1;exitX=1;exitY=0.5;exitDx=0;exitDy=0;noEdgeStyle=1;orthogonal=1;" parent="1" source="Dgwj-SZr-PMqsErr2o7s-61" target="Dgwj-SZr-PMqsErr2o7s-63" edge="1">
          <mxGeometry relative="1" as="geometry">
            <Array as="points">
              <mxPoint x="1050" y="752" />
              <mxPoint x="983.3333333333334" y="828" />
            </Array>
          </mxGeometry>
        </mxCell>
        <mxCell id="Dgwj-SZr-PMqsErr2o7s-61" value="Fetch Documentation" style="shape=manualInput;whiteSpace=wrap;html=1;dashed=0;size=15;fillColor=#cca3e0;strokeColor=#9673a6;" parent="1" vertex="1">
          <mxGeometry x="1000" y="665" width="100" height="70" as="geometry" />
        </mxCell>
        <mxCell id="Dgwj-SZr-PMqsErr2o7s-66" style="edgeStyle=orthogonalEdgeStyle;rounded=0;orthogonalLoop=1;jettySize=auto;html=1;exitX=0.5;exitY=1;exitDx=0;exitDy=0;noEdgeStyle=1;orthogonal=1;" parent="1" source="Dgwj-SZr-PMqsErr2o7s-63" target="Dgwj-SZr-PMqsErr2o7s-39" edge="1">
          <mxGeometry relative="1" as="geometry">
            <Array as="points">
              <mxPoint x="1010" y="826" />
              <mxPoint x="1130" y="790" />
              <mxPoint x="1130" y="610" />
              <mxPoint x="621.6666666666663" y="578" />
            </Array>
          </mxGeometry>
        </mxCell>
        <mxCell id="Dgwj-SZr-PMqsErr2o7s-63" value="Fetch docstring" style="shape=ellipse;html=1;dashed=0;whiteSpace=wrap;aspect=fixed;perimeter=ellipsePerimeter;fillColor=#FFD966;strokeColor=#D6A318;" parent="1" vertex="1">
          <mxGeometry x="965" y="850" width="90" height="90" as="geometry" />
        </mxCell>
        <mxCell id="m_El8sEmNPDGXUU-qMF1-5" style="edgeStyle=orthogonalEdgeStyle;rounded=0;orthogonalLoop=1;jettySize=auto;html=1;exitX=0.5;exitY=0;exitDx=0;exitDy=0;noEdgeStyle=1;orthogonal=1;" edge="1" parent="1" source="m_El8sEmNPDGXUU-qMF1-1" target="m_El8sEmNPDGXUU-qMF1-4">
          <mxGeometry relative="1" as="geometry">
            <Array as="points">
              <mxPoint x="447.5" y="752" />
              <mxPoint x="280" y="828" />
            </Array>
          </mxGeometry>
        </mxCell>
        <mxCell id="m_El8sEmNPDGXUU-qMF1-6" style="edgeStyle=orthogonalEdgeStyle;rounded=0;orthogonalLoop=1;jettySize=auto;html=1;exitX=1;exitY=0.5;exitDx=0;exitDy=0;noEdgeStyle=1;orthogonal=1;" edge="1" parent="1" source="m_El8sEmNPDGXUU-qMF1-1" target="m_El8sEmNPDGXUU-qMF1-3">
          <mxGeometry relative="1" as="geometry">
            <Array as="points">
              <mxPoint x="492.5" y="752" />
              <mxPoint x="470" y="828" />
            </Array>
          </mxGeometry>
        </mxCell>
        <mxCell id="m_El8sEmNPDGXUU-qMF1-1" value="File Change" style="shape=manualInput;whiteSpace=wrap;html=1;dashed=0;size=15;fillColor=#cca3e0;strokeColor=#9673a6;" vertex="1" parent="1">
          <mxGeometry x="420" y="665" width="100" height="70" as="geometry" />
        </mxCell>
        <mxCell id="m_El8sEmNPDGXUU-qMF1-8" style="edgeStyle=orthogonalEdgeStyle;rounded=0;orthogonalLoop=1;jettySize=auto;html=1;exitX=0.5;exitY=0;exitDx=0;exitDy=0;noEdgeStyle=1;orthogonal=1;" edge="1" parent="1" source="m_El8sEmNPDGXUU-qMF1-3" target="m_El8sEmNPDGXUU-qMF1-7">
          <mxGeometry relative="1" as="geometry">
            <Array as="points">
              <mxPoint x="443.3333333333333" y="962" />
              <mxPoint x="470" y="1038" />
            </Array>
          </mxGeometry>
        </mxCell>
        <mxCell id="m_El8sEmNPDGXUU-qMF1-10" style="edgeStyle=orthogonalEdgeStyle;rounded=0;orthogonalLoop=1;jettySize=auto;html=1;exitX=1;exitY=0.5;exitDx=0;exitDy=0;noEdgeStyle=1;orthogonal=1;" edge="1" parent="1" source="m_El8sEmNPDGXUU-qMF1-3" target="m_El8sEmNPDGXUU-qMF1-9">
          <mxGeometry relative="1" as="geometry">
            <Array as="points">
              <mxPoint x="496.6666666666667" y="962" />
              <mxPoint x="672.5" y="1038" />
            </Array>
          </mxGeometry>
        </mxCell>
        <mxCell id="m_El8sEmNPDGXUU-qMF1-11" value="Delta" style="edgeLabel;html=1;align=center;verticalAlign=middle;resizable=0;points=[];" vertex="1" connectable="0" parent="m_El8sEmNPDGXUU-qMF1-10">
          <mxGeometry x="-0.1756" y="1" relative="1" as="geometry">
            <mxPoint x="-9" y="1" as="offset" />
          </mxGeometry>
        </mxCell>
        <mxCell id="m_El8sEmNPDGXUU-qMF1-12" style="edgeStyle=orthogonalEdgeStyle;rounded=0;orthogonalLoop=1;jettySize=auto;html=1;exitX=0;exitY=0;exitDx=0;exitDy=0;entryX=0.25;entryY=0;entryDx=0;entryDy=0;noEdgeStyle=1;orthogonal=1;" edge="1" parent="1" source="m_El8sEmNPDGXUU-qMF1-3" target="Dgwj-SZr-PMqsErr2o7s-8">
          <mxGeometry relative="1" as="geometry">
            <Array as="points">
              <mxPoint x="470" y="964" />
              <mxPoint x="615" y="1000" />
              <mxPoint x="615" y="1160" />
              <mxPoint x="575" y="1160" />
              <mxPoint x="575" y="1350" />
              <mxPoint x="851.25" y="1388" />
            </Array>
          </mxGeometry>
        </mxCell>
        <mxCell id="m_El8sEmNPDGXUU-qMF1-13" value="Delta Inserted" style="edgeLabel;html=1;align=center;verticalAlign=middle;resizable=0;points=[];" vertex="1" connectable="0" parent="m_El8sEmNPDGXUU-qMF1-12">
          <mxGeometry x="0.0875" y="3" relative="1" as="geometry">
            <mxPoint as="offset" />
          </mxGeometry>
        </mxCell>
        <mxCell id="m_El8sEmNPDGXUU-qMF1-3" value="Delta Creator" style="shape=ellipse;html=1;dashed=0;whiteSpace=wrap;aspect=fixed;perimeter=ellipsePerimeter;fillColor=#FFD966;strokeColor=#D6A318;" vertex="1" parent="1">
          <mxGeometry x="425" y="850" width="90" height="90" as="geometry" />
        </mxCell>
        <mxCell id="m_El8sEmNPDGXUU-qMF1-4" value="Payload: The full path in the file&#39;s JSON describing which object/array (at the lowest level possible) was modified, along with its new value." style="text;html=1;strokeColor=default;fillColor=none;align=left;verticalAlign=top;whiteSpace=wrap;rounded=0;" vertex="1" parent="1">
          <mxGeometry x="165" y="860" width="230" height="70" as="geometry" />
        </mxCell>
        <mxCell id="m_El8sEmNPDGXUU-qMF1-7" value="This adds to the previous payload the old value at the path specified, that is taken from the existing file." style="text;html=1;strokeColor=default;fillColor=none;align=left;verticalAlign=top;whiteSpace=wrap;rounded=0;" vertex="1" parent="1">
          <mxGeometry x="355" y="1050" width="230" height="60" as="geometry" />
        </mxCell>
        <mxCell id="m_El8sEmNPDGXUU-qMF1-33" style="edgeStyle=orthogonalEdgeStyle;rounded=0;orthogonalLoop=1;jettySize=auto;html=1;exitX=0.5;exitY=1;exitDx=0;exitDy=0;noEdgeStyle=1;orthogonal=1;" edge="1" parent="1" source="m_El8sEmNPDGXUU-qMF1-9" target="m_El8sEmNPDGXUU-qMF1-32">
          <mxGeometry relative="1" as="geometry">
            <Array as="points">
              <mxPoint x="717.5" y="1122" />
              <mxPoint x="653.3333333333334" y="1198" />
            </Array>
          </mxGeometry>
        </mxCell>
        <mxCell id="m_El8sEmNPDGXUU-qMF1-9" value="Undo Redo Stacks (1 per file)" style="html=1;dashed=0;whiteSpace=wrap;shape=partialRectangle;right=0;fillColor=#d5e8d4;strokeColor=#82b366;" vertex="1" parent="1">
          <mxGeometry x="645" y="1065" width="100" height="30" as="geometry" />
        </mxCell>
        <mxCell id="m_El8sEmNPDGXUU-qMF1-14" value="Any changes will be done in memory, and persisted to disk only if file is saved." style="text;html=1;strokeColor=default;fillColor=none;align=left;verticalAlign=top;whiteSpace=wrap;rounded=0;" vertex="1" parent="1">
          <mxGeometry x="734.5" y="1575" width="161" height="60" as="geometry" />
        </mxCell>
        <mxCell id="m_El8sEmNPDGXUU-qMF1-20" style="edgeStyle=orthogonalEdgeStyle;rounded=0;orthogonalLoop=1;jettySize=auto;html=1;exitX=1;exitY=0.5;exitDx=0;exitDy=0;noEdgeStyle=1;orthogonal=1;" edge="1" parent="1" source="m_El8sEmNPDGXUU-qMF1-17" target="m_El8sEmNPDGXUU-qMF1-19">
          <mxGeometry relative="1" as="geometry">
            <Array as="points">
              <mxPoint x="1362.5" y="752" />
              <mxPoint x="1345" y="790" />
              <mxPoint x="1345" y="1000" />
              <mxPoint x="1345" y="1000" />
              <mxPoint x="1345" y="1160" />
              <mxPoint x="1345" y="1160" />
              <mxPoint x="1345" y="1350" />
              <mxPoint x="1345" y="1350" />
              <mxPoint x="1345" y="1510" />
              <mxPoint x="1117.1666666666667" y="1546" />
            </Array>
          </mxGeometry>
        </mxCell>
        <mxCell id="m_El8sEmNPDGXUU-qMF1-40" style="edgeStyle=orthogonalEdgeStyle;rounded=0;orthogonalLoop=1;jettySize=auto;html=1;exitX=1;exitY=0.5;exitDx=0;exitDy=0;noEdgeStyle=1;orthogonal=1;" edge="1" parent="1" source="m_El8sEmNPDGXUU-qMF1-17" target="m_El8sEmNPDGXUU-qMF1-39">
          <mxGeometry relative="1" as="geometry">
            <Array as="points">
              <mxPoint x="1317.5" y="752" />
              <mxPoint x="1200" y="828" />
            </Array>
          </mxGeometry>
        </mxCell>
        <mxCell id="m_El8sEmNPDGXUU-qMF1-17" value="Save File" style="shape=manualInput;whiteSpace=wrap;html=1;dashed=0;size=15;fillColor=#cca3e0;strokeColor=#9673a6;" vertex="1" parent="1">
          <mxGeometry x="1290" y="675" width="100" height="50" as="geometry" />
        </mxCell>
        <mxCell id="m_El8sEmNPDGXUU-qMF1-22" style="edgeStyle=orthogonalEdgeStyle;rounded=0;orthogonalLoop=1;jettySize=auto;html=1;exitX=0.5;exitY=0;exitDx=0;exitDy=0;noEdgeStyle=1;orthogonal=1;" edge="1" parent="1" source="m_El8sEmNPDGXUU-qMF1-19" target="Dgwj-SZr-PMqsErr2o7s-8">
          <mxGeometry relative="1" as="geometry">
            <Array as="points">
              <mxPoint x="1090.5" y="1548" />
              <mxPoint x="923.5714285714288" y="1474" />
            </Array>
          </mxGeometry>
        </mxCell>
        <mxCell id="m_El8sEmNPDGXUU-qMF1-23" value="As saved-to-disk file" style="edgeLabel;html=1;align=center;verticalAlign=middle;resizable=0;points=[];" vertex="1" connectable="0" parent="m_El8sEmNPDGXUU-qMF1-22">
          <mxGeometry x="0.1193" y="-5" relative="1" as="geometry">
            <mxPoint as="offset" />
          </mxGeometry>
        </mxCell>
        <mxCell id="m_El8sEmNPDGXUU-qMF1-28" style="edgeStyle=orthogonalEdgeStyle;rounded=0;orthogonalLoop=1;jettySize=auto;html=1;exitX=0.5;exitY=1;exitDx=0;exitDy=0;noEdgeStyle=1;orthogonal=1;" edge="1" parent="1" source="m_El8sEmNPDGXUU-qMF1-19" target="m_El8sEmNPDGXUU-qMF1-27">
          <mxGeometry relative="1" as="geometry">
            <Array as="points">
              <mxPoint x="1090.5" y="1662" />
              <mxPoint x="887.5" y="1738" />
            </Array>
          </mxGeometry>
        </mxCell>
        <mxCell id="m_El8sEmNPDGXUU-qMF1-19" value="File Contents Persistor" style="shape=ellipse;html=1;dashed=0;whiteSpace=wrap;aspect=fixed;perimeter=ellipsePerimeter;fillColor=#FFD966;strokeColor=#D6A318;" vertex="1" parent="1">
          <mxGeometry x="1045.5" y="1560" width="90" height="90" as="geometry" />
        </mxCell>
        <mxCell id="m_El8sEmNPDGXUU-qMF1-25" style="edgeStyle=orthogonalEdgeStyle;rounded=0;orthogonalLoop=1;jettySize=auto;html=1;exitX=0;exitY=0.5;exitDx=0;exitDy=0;noEdgeStyle=1;orthogonal=1;" edge="1" parent="1" source="m_El8sEmNPDGXUU-qMF1-24" target="m_El8sEmNPDGXUU-qMF1-9">
          <mxGeometry relative="1" as="geometry">
            <Array as="points">
              <mxPoint x="785" y="1928" />
              <mxPoint x="570" y="1890" />
              <mxPoint x="570" y="1700" />
              <mxPoint x="554.5" y="1700" />
              <mxPoint x="554.5" y="1510" />
              <mxPoint x="545" y="1510" />
              <mxPoint x="545" y="1350" />
              <mxPoint x="605" y="1350" />
              <mxPoint x="605" y="1160" />
              <mxPoint x="672.5" y="1122" />
            </Array>
          </mxGeometry>
        </mxCell>
        <mxCell id="m_El8sEmNPDGXUU-qMF1-24" value="Purge All Affected Files&#39; Stacks" style="shape=ellipse;html=1;dashed=0;whiteSpace=wrap;aspect=fixed;perimeter=ellipsePerimeter;fillColor=#FFD966;strokeColor=#D6A318;" vertex="1" parent="1">
          <mxGeometry x="760" y="1940" width="90" height="90" as="geometry" />
        </mxCell>
        <mxCell id="m_El8sEmNPDGXUU-qMF1-29" style="edgeStyle=orthogonalEdgeStyle;rounded=0;orthogonalLoop=1;jettySize=auto;html=1;exitX=1;exitY=0.25;exitDx=0;exitDy=0;noEdgeStyle=1;orthogonal=1;" edge="1" parent="1" source="m_El8sEmNPDGXUU-qMF1-27" target="Dgwj-SZr-PMqsErr2o7s-39">
          <mxGeometry relative="1" as="geometry">
            <Array as="points">
              <mxPoint x="932.5" y="1738" />
              <mxPoint x="1420" y="1700" />
              <mxPoint x="1420" y="1510" />
              <mxPoint x="1420" y="1510" />
              <mxPoint x="1420" y="1350" />
              <mxPoint x="1420" y="1350" />
              <mxPoint x="1420" y="1160" />
              <mxPoint x="1420" y="1160" />
              <mxPoint x="1420" y="1000" />
              <mxPoint x="1420" y="1000" />
              <mxPoint x="1420" y="790" />
              <mxPoint x="1420" y="790" />
              <mxPoint x="1420" y="610" />
              <mxPoint x="634.9999999999995" y="574" />
            </Array>
          </mxGeometry>
        </mxCell>
        <mxCell id="m_El8sEmNPDGXUU-qMF1-27" value="Saving Success/Error" style="shape=manualInput;whiteSpace=wrap;html=1;dashed=0;size=15;fillColor=#cca3e0;strokeColor=#9673a6;" vertex="1" parent="1">
          <mxGeometry x="860" y="1770" width="100" height="50" as="geometry" />
        </mxCell>
        <mxCell id="m_El8sEmNPDGXUU-qMF1-38" style="edgeStyle=orthogonalEdgeStyle;rounded=0;orthogonalLoop=1;jettySize=auto;html=1;exitX=0.5;exitY=1;exitDx=0;exitDy=0;noEdgeStyle=1;orthogonal=1;" edge="1" parent="1" source="m_El8sEmNPDGXUU-qMF1-30" target="m_El8sEmNPDGXUU-qMF1-32">
          <mxGeometry relative="1" as="geometry">
            <Array as="points">
              <mxPoint x="600" y="752" />
              <mxPoint x="545" y="790" />
              <mxPoint x="545" y="1000" />
              <mxPoint x="775" y="1000" />
              <mxPoint x="775" y="1160" />
              <mxPoint x="680" y="1196" />
            </Array>
          </mxGeometry>
        </mxCell>
        <mxCell id="m_El8sEmNPDGXUU-qMF1-30" value="Undo/Redo Event" style="shape=manualInput;whiteSpace=wrap;html=1;dashed=0;size=15;fillColor=#cca3e0;strokeColor=#9673a6;" vertex="1" parent="1">
          <mxGeometry x="550" y="675" width="100" height="50" as="geometry" />
        </mxCell>
        <mxCell id="m_El8sEmNPDGXUU-qMF1-34" style="edgeStyle=orthogonalEdgeStyle;rounded=0;orthogonalLoop=1;jettySize=auto;html=1;exitX=1;exitY=0.5;exitDx=0;exitDy=0;noEdgeStyle=1;orthogonal=1;" edge="1" parent="1" source="m_El8sEmNPDGXUU-qMF1-32" target="Dgwj-SZr-PMqsErr2o7s-8">
          <mxGeometry relative="1" as="geometry">
            <Array as="points">
              <mxPoint x="700" y="1312" />
              <mxPoint x="873.75" y="1386" />
            </Array>
          </mxGeometry>
        </mxCell>
        <mxCell id="m_El8sEmNPDGXUU-qMF1-35" style="edgeStyle=orthogonalEdgeStyle;rounded=0;orthogonalLoop=1;jettySize=auto;html=1;exitX=1;exitY=0;exitDx=0;exitDy=0;noEdgeStyle=1;orthogonal=1;" edge="1" parent="1" source="m_El8sEmNPDGXUU-qMF1-32" target="Dgwj-SZr-PMqsErr2o7s-39">
          <mxGeometry relative="1" as="geometry">
            <Array as="points">
              <mxPoint x="706.6666666666666" y="1198" />
              <mxPoint x="805" y="1160" />
              <mxPoint x="805" y="1000" />
              <mxPoint x="575" y="1000" />
              <mxPoint x="575" y="790" />
              <mxPoint x="680" y="790" />
              <mxPoint x="680" y="610" />
              <mxPoint x="588.3333333333331" y="584" />
            </Array>
          </mxGeometry>
        </mxCell>
        <mxCell id="m_El8sEmNPDGXUU-qMF1-37" style="edgeStyle=orthogonalEdgeStyle;rounded=0;orthogonalLoop=1;jettySize=auto;html=1;exitX=0;exitY=0.5;exitDx=0;exitDy=0;noEdgeStyle=1;orthogonal=1;" edge="1" parent="1" source="m_El8sEmNPDGXUU-qMF1-32" target="m_El8sEmNPDGXUU-qMF1-36">
          <mxGeometry relative="1" as="geometry">
            <Array as="points">
              <mxPoint x="660" y="1312" />
              <mxPoint x="690" y="1388" />
            </Array>
          </mxGeometry>
        </mxCell>
        <mxCell id="m_El8sEmNPDGXUU-qMF1-32" value="Extract Appropriate Delta" style="shape=ellipse;html=1;dashed=0;whiteSpace=wrap;aspect=fixed;perimeter=ellipsePerimeter;fillColor=#FFD966;strokeColor=#D6A318;" vertex="1" parent="1">
          <mxGeometry x="635" y="1210" width="90" height="90" as="geometry" />
        </mxCell>
        <mxCell id="m_El8sEmNPDGXUU-qMF1-36" value="First update the file contents, then return to frontend." style="text;html=1;strokeColor=default;fillColor=none;align=left;verticalAlign=top;whiteSpace=wrap;rounded=0;" vertex="1" parent="1">
          <mxGeometry x="575" y="1400" width="230" height="60" as="geometry" />
        </mxCell>
        <mxCell id="m_El8sEmNPDGXUU-qMF1-39" value="Autosave means this event is triggered by the frontend from time to time." style="text;html=1;strokeColor=default;fillColor=none;align=left;verticalAlign=top;whiteSpace=wrap;rounded=0;" vertex="1" parent="1">
          <mxGeometry x="1085" y="865" width="230" height="60" as="geometry" />
        </mxCell>
        <mxCell id="m_El8sEmNPDGXUU-qMF1-44" style="edgeStyle=orthogonalEdgeStyle;rounded=0;orthogonalLoop=1;jettySize=auto;html=1;exitX=0;exitY=0.5;exitDx=0;exitDy=0;noEdgeStyle=1;orthogonal=1;" edge="1" parent="1" source="m_El8sEmNPDGXUU-qMF1-41" target="m_El8sEmNPDGXUU-qMF1-43">
          <mxGeometry relative="1" as="geometry">
            <Array as="points">
              <mxPoint x="737.5" y="752" />
              <mxPoint x="680" y="828" />
            </Array>
          </mxGeometry>
        </mxCell>
        <mxCell id="m_El8sEmNPDGXUU-qMF1-58" style="edgeStyle=orthogonalEdgeStyle;rounded=0;orthogonalLoop=1;jettySize=auto;html=1;exitX=0.75;exitY=1;exitDx=0;exitDy=0;noEdgeStyle=1;orthogonal=1;" edge="1" parent="1" source="m_El8sEmNPDGXUU-qMF1-41" target="m_El8sEmNPDGXUU-qMF1-57">
          <mxGeometry relative="1" as="geometry">
            <Array as="points">
              <mxPoint x="782.5" y="752" />
              <mxPoint x="830" y="828" />
            </Array>
          </mxGeometry>
        </mxCell>
        <mxCell id="m_El8sEmNPDGXUU-qMF1-41" value="FS Change" style="shape=manualInput;whiteSpace=wrap;html=1;dashed=0;size=15;fillColor=#cca3e0;strokeColor=#9673a6;" vertex="1" parent="1">
          <mxGeometry x="710" y="675" width="100" height="50" as="geometry" />
        </mxCell>
        <mxCell id="m_El8sEmNPDGXUU-qMF1-43" value="4 possibilities:&lt;br&gt;&lt;ul&gt;&lt;li&gt;add a file&lt;/li&gt;&lt;li&gt;delete a file&lt;/li&gt;&lt;li&gt;create folder&lt;/li&gt;&lt;li&gt;delete folder&lt;/li&gt;&lt;/ul&gt;" style="text;html=1;strokeColor=default;fillColor=none;align=left;verticalAlign=top;whiteSpace=wrap;rounded=0;" vertex="1" parent="1">
          <mxGeometry x="605" y="840" width="150" height="110" as="geometry" />
        </mxCell>
        <mxCell id="m_El8sEmNPDGXUU-qMF1-55" style="edgeStyle=orthogonalEdgeStyle;rounded=0;orthogonalLoop=1;jettySize=auto;html=1;exitX=1;exitY=0.5;exitDx=0;exitDy=0;noEdgeStyle=1;orthogonal=1;" edge="1" parent="1" source="m_El8sEmNPDGXUU-qMF1-52" target="m_El8sEmNPDGXUU-qMF1-54">
          <mxGeometry relative="1" as="geometry">
            <Array as="points">
              <mxPoint x="780.3666989268819" y="412" />
              <mxPoint x="795" y="488" />
            </Array>
          </mxGeometry>
        </mxCell>
        <mxCell id="m_El8sEmNPDGXUU-qMF1-56" style="edgeStyle=orthogonalEdgeStyle;rounded=0;orthogonalLoop=1;jettySize=auto;html=1;exitX=0.5;exitY=1;exitDx=0;exitDy=0;noEdgeStyle=1;orthogonal=1;" edge="1" parent="1" source="m_El8sEmNPDGXUU-qMF1-52" target="Dgwj-SZr-PMqsErr2o7s-39">
          <mxGeometry relative="1" as="geometry">
            <Array as="points">
              <mxPoint x="735.3666989268819" y="412" />
              <mxPoint x="595" y="488" />
            </Array>
          </mxGeometry>
        </mxCell>
        <mxCell id="m_El8sEmNPDGXUU-qMF1-52" value="New Validation Report" style="shape=manualInput;whiteSpace=wrap;html=1;dashed=0;size=15;fillColor=#cca3e0;strokeColor=#9673a6;" vertex="1" parent="1">
          <mxGeometry x="707.8666989268819" y="330" width="100" height="70" as="geometry" />
        </mxCell>
        <mxCell id="m_El8sEmNPDGXUU-qMF1-54" value="Payload: All validation messages for 1 file." style="text;html=1;strokeColor=default;fillColor=none;align=left;verticalAlign=top;whiteSpace=wrap;rounded=0;" vertex="1" parent="1">
          <mxGeometry x="680" y="500" width="230" height="60" as="geometry" />
        </mxCell>
        <mxCell id="m_El8sEmNPDGXUU-qMF1-59" style="edgeStyle=orthogonalEdgeStyle;rounded=0;orthogonalLoop=1;jettySize=auto;html=1;exitX=1;exitY=0.5;exitDx=0;exitDy=0;noEdgeStyle=1;orthogonal=1;" edge="1" parent="1" source="m_El8sEmNPDGXUU-qMF1-57" target="Dgwj-SZr-PMqsErr2o7s-7">
          <mxGeometry relative="1" as="geometry">
            <Array as="points">
              <mxPoint x="830" y="964" />
              <mxPoint x="890" y="1038" />
            </Array>
          </mxGeometry>
        </mxCell>
        <mxCell id="m_El8sEmNPDGXUU-qMF1-60" style="edgeStyle=orthogonalEdgeStyle;rounded=0;orthogonalLoop=1;jettySize=auto;html=1;exitX=0;exitY=0.5;exitDx=0;exitDy=0;noEdgeStyle=1;orthogonal=1;" edge="1" parent="1" source="m_El8sEmNPDGXUU-qMF1-57" target="m_El8sEmNPDGXUU-qMF1-9">
          <mxGeometry relative="1" as="geometry">
            <Array as="points">
              <mxPoint x="803.3333333333334" y="962" />
              <mxPoint x="717.5" y="1038" />
            </Array>
          </mxGeometry>
        </mxCell>
        <mxCell id="m_El8sEmNPDGXUU-qMF1-61" style="edgeStyle=orthogonalEdgeStyle;rounded=0;orthogonalLoop=1;jettySize=auto;html=1;exitX=0;exitY=1;exitDx=0;exitDy=0;noEdgeStyle=1;orthogonal=1;" edge="1" parent="1" source="m_El8sEmNPDGXUU-qMF1-57" target="Dgwj-SZr-PMqsErr2o7s-8">
          <mxGeometry relative="1" as="geometry">
            <Array as="points">
              <mxPoint x="856.6666666666666" y="962" />
              <mxPoint x="975" y="1000" />
              <mxPoint x="975" y="1160" />
              <mxPoint x="785" y="1160" />
              <mxPoint x="785" y="1350" />
              <mxPoint x="896.25" y="1386" />
            </Array>
          </mxGeometry>
        </mxCell>
        <mxCell id="m_El8sEmNPDGXUU-qMF1-57" value="Apply Change" style="shape=ellipse;html=1;dashed=0;whiteSpace=wrap;aspect=fixed;perimeter=ellipsePerimeter;fillColor=#FFD966;strokeColor=#D6A318;" vertex="1" parent="1">
          <mxGeometry x="785" y="850" width="90" height="90" as="geometry" />
        </mxCell>
      </root>
    </mxGraphModel>
  </diagram>
</mxfile>
